<mxfile host="app.diagrams.net" agent="Mozilla/5.0 (Macintosh; Intel Mac OS X 10_15_7) AppleWebKit/537.36 (KHTML, like Gecko) Chrome/134.0.0.0 Safari/537.36" border="50" scale="3" compressed="false" locked="false" version="26.1.1">
  <diagram name="Blank" id="YmL12bMKpDGza6XwsDPr">
    <mxGraphModel dx="1242" dy="785" grid="0" gridSize="10" guides="1" tooltips="1" connect="1" arrows="1" fold="1" page="0" pageScale="1" pageWidth="827" pageHeight="1169" background="none" math="1" shadow="0">
      <root>
        <mxCell id="X5NqExCQtvZxIxQ7pmgY-0" />
        <mxCell id="1" parent="X5NqExCQtvZxIxQ7pmgY-0" />
        <mxCell id="Gr0Zq-AI6Quabplr0KPa-179" value="Mindmap" style="swimlane;html=1;startSize=20;horizontal=1;containerType=tree;labelBackgroundColor=none;strokeColor=#D4E1F5;strokeWidth=1;fillColor=none;fontFamily=Comic Sans MS;fontSize=9;swimlaneLine=0;dashed=1;collapsible=0;" parent="1" vertex="1">
          <mxGeometry x="64" y="188" width="1847" height="1177" as="geometry" />
        </mxCell>
        <mxCell id="kl9yPUdAR2kA5Z42WzvT-21" value="" style="edgeStyle=entityRelationEdgeStyle;rounded=0;orthogonalLoop=1;jettySize=auto;html=1;startArrow=none;endArrow=none;segment=10;curved=1;sourcePerimeterSpacing=0;targetPerimeterSpacing=0;" edge="1" parent="Gr0Zq-AI6Quabplr0KPa-179" source="kl9yPUdAR2kA5Z42WzvT-18" target="kl9yPUdAR2kA5Z42WzvT-20">
          <mxGeometry relative="1" as="geometry" />
        </mxCell>
        <mxCell id="kl9yPUdAR2kA5Z42WzvT-18" value="&lt;span style=&quot;font-family: &amp;quot;Comic Sans MS&amp;quot;;&quot;&gt;&lt;font style=&quot;font-size: 14px;&quot;&gt;&lt;b&gt;Java 架构&lt;/b&gt;&lt;/font&gt;&lt;/span&gt;&lt;div&gt;&lt;span style=&quot;font-family: &amp;quot;Comic Sans MS&amp;quot;;&quot;&gt;&lt;font style=&quot;font-size: 14px;&quot;&gt;&lt;b&gt;技术栈&lt;/b&gt;&lt;/font&gt;&lt;/span&gt;&lt;/div&gt;" style="ellipse;whiteSpace=wrap;html=1;align=center;newEdgeStyle={&quot;edgeStyle&quot;:&quot;entityRelationEdgeStyle&quot;,&quot;startArrow&quot;:&quot;none&quot;,&quot;endArrow&quot;:&quot;none&quot;,&quot;segment&quot;:10,&quot;curved&quot;:1,&quot;sourcePerimeterSpacing&quot;:0,&quot;targetPerimeterSpacing&quot;:0};treeFolding=1;treeMoving=1;" vertex="1" parent="Gr0Zq-AI6Quabplr0KPa-179">
          <mxGeometry x="233" y="452" width="186" height="83" as="geometry" />
        </mxCell>
        <mxCell id="kl9yPUdAR2kA5Z42WzvT-40" value="" style="edgeStyle=entityRelationEdgeStyle;rounded=0;orthogonalLoop=1;jettySize=auto;html=1;startArrow=none;endArrow=none;segment=10;curved=1;sourcePerimeterSpacing=0;targetPerimeterSpacing=0;" edge="1" parent="Gr0Zq-AI6Quabplr0KPa-179" source="kl9yPUdAR2kA5Z42WzvT-20" target="kl9yPUdAR2kA5Z42WzvT-39">
          <mxGeometry relative="1" as="geometry" />
        </mxCell>
        <mxCell id="kl9yPUdAR2kA5Z42WzvT-20" value="设计" style="ellipse;whiteSpace=wrap;html=1;align=center;newEdgeStyle={&quot;edgeStyle&quot;:&quot;entityRelationEdgeStyle&quot;,&quot;startArrow&quot;:&quot;none&quot;,&quot;endArrow&quot;:&quot;none&quot;,&quot;segment&quot;:10,&quot;curved&quot;:1,&quot;sourcePerimeterSpacing&quot;:0,&quot;targetPerimeterSpacing&quot;:0};treeFolding=1;treeMoving=1;" vertex="1" parent="Gr0Zq-AI6Quabplr0KPa-179">
          <mxGeometry x="506" y="463" width="100" height="40" as="geometry" />
        </mxCell>
        <mxCell id="kl9yPUdAR2kA5Z42WzvT-22" value="" style="edgeStyle=entityRelationEdgeStyle;rounded=0;orthogonalLoop=1;jettySize=auto;html=1;startArrow=none;endArrow=none;segment=10;curved=1;sourcePerimeterSpacing=0;targetPerimeterSpacing=0;" edge="1" target="kl9yPUdAR2kA5Z42WzvT-23" source="kl9yPUdAR2kA5Z42WzvT-20" parent="Gr0Zq-AI6Quabplr0KPa-179">
          <mxGeometry relative="1" as="geometry">
            <mxPoint x="226" y="754" as="sourcePoint" />
          </mxGeometry>
        </mxCell>
        <mxCell id="kl9yPUdAR2kA5Z42WzvT-26" value="" style="edgeStyle=entityRelationEdgeStyle;rounded=0;orthogonalLoop=1;jettySize=auto;html=1;startArrow=none;endArrow=none;segment=10;curved=1;sourcePerimeterSpacing=0;targetPerimeterSpacing=0;" edge="1" parent="Gr0Zq-AI6Quabplr0KPa-179" source="kl9yPUdAR2kA5Z42WzvT-23" target="kl9yPUdAR2kA5Z42WzvT-25">
          <mxGeometry relative="1" as="geometry" />
        </mxCell>
        <mxCell id="kl9yPUdAR2kA5Z42WzvT-28" value="" style="edgeStyle=entityRelationEdgeStyle;rounded=0;orthogonalLoop=1;jettySize=auto;html=1;startArrow=none;endArrow=none;segment=10;curved=1;sourcePerimeterSpacing=0;targetPerimeterSpacing=0;" edge="1" parent="Gr0Zq-AI6Quabplr0KPa-179" source="kl9yPUdAR2kA5Z42WzvT-23" target="kl9yPUdAR2kA5Z42WzvT-27">
          <mxGeometry relative="1" as="geometry" />
        </mxCell>
        <mxCell id="kl9yPUdAR2kA5Z42WzvT-30" value="" style="edgeStyle=entityRelationEdgeStyle;rounded=0;orthogonalLoop=1;jettySize=auto;html=1;startArrow=none;endArrow=none;segment=10;curved=1;sourcePerimeterSpacing=0;targetPerimeterSpacing=0;" edge="1" parent="Gr0Zq-AI6Quabplr0KPa-179" source="kl9yPUdAR2kA5Z42WzvT-23" target="kl9yPUdAR2kA5Z42WzvT-29">
          <mxGeometry relative="1" as="geometry" />
        </mxCell>
        <mxCell id="kl9yPUdAR2kA5Z42WzvT-23" value="设计模式" style="ellipse;whiteSpace=wrap;html=1;align=center;newEdgeStyle={&quot;edgeStyle&quot;:&quot;entityRelationEdgeStyle&quot;,&quot;startArrow&quot;:&quot;none&quot;,&quot;endArrow&quot;:&quot;none&quot;,&quot;segment&quot;:10,&quot;curved&quot;:1,&quot;sourcePerimeterSpacing&quot;:0,&quot;targetPerimeterSpacing&quot;:0};treeFolding=1;treeMoving=1;" vertex="1" parent="Gr0Zq-AI6Quabplr0KPa-179">
          <mxGeometry x="648" y="398" width="100" height="40" as="geometry" />
        </mxCell>
        <mxCell id="kl9yPUdAR2kA5Z42WzvT-54" value="" style="edgeStyle=entityRelationEdgeStyle;rounded=0;orthogonalLoop=1;jettySize=auto;html=1;startArrow=none;endArrow=none;segment=10;curved=1;sourcePerimeterSpacing=0;targetPerimeterSpacing=0;" edge="1" parent="Gr0Zq-AI6Quabplr0KPa-179" source="kl9yPUdAR2kA5Z42WzvT-25" target="kl9yPUdAR2kA5Z42WzvT-53">
          <mxGeometry relative="1" as="geometry" />
        </mxCell>
        <mxCell id="kl9yPUdAR2kA5Z42WzvT-56" value="" style="edgeStyle=entityRelationEdgeStyle;rounded=0;orthogonalLoop=1;jettySize=auto;html=1;startArrow=none;endArrow=none;segment=10;curved=1;sourcePerimeterSpacing=0;targetPerimeterSpacing=0;" edge="1" parent="Gr0Zq-AI6Quabplr0KPa-179" source="kl9yPUdAR2kA5Z42WzvT-25" target="kl9yPUdAR2kA5Z42WzvT-55">
          <mxGeometry relative="1" as="geometry" />
        </mxCell>
        <mxCell id="kl9yPUdAR2kA5Z42WzvT-58" value="" style="edgeStyle=entityRelationEdgeStyle;rounded=0;orthogonalLoop=1;jettySize=auto;html=1;startArrow=none;endArrow=none;segment=10;curved=1;sourcePerimeterSpacing=0;targetPerimeterSpacing=0;" edge="1" parent="Gr0Zq-AI6Quabplr0KPa-179" source="kl9yPUdAR2kA5Z42WzvT-25" target="kl9yPUdAR2kA5Z42WzvT-57">
          <mxGeometry relative="1" as="geometry" />
        </mxCell>
        <mxCell id="kl9yPUdAR2kA5Z42WzvT-25" value="创建对象类" style="ellipse;whiteSpace=wrap;html=1;align=center;newEdgeStyle={&quot;edgeStyle&quot;:&quot;entityRelationEdgeStyle&quot;,&quot;startArrow&quot;:&quot;none&quot;,&quot;endArrow&quot;:&quot;none&quot;,&quot;segment&quot;:10,&quot;curved&quot;:1,&quot;sourcePerimeterSpacing&quot;:0,&quot;targetPerimeterSpacing&quot;:0};treeFolding=1;treeMoving=1;" vertex="1" parent="Gr0Zq-AI6Quabplr0KPa-179">
          <mxGeometry x="787" y="99" width="100" height="40" as="geometry" />
        </mxCell>
        <mxCell id="kl9yPUdAR2kA5Z42WzvT-27" value="对象行为类" style="ellipse;whiteSpace=wrap;html=1;align=center;newEdgeStyle={&quot;edgeStyle&quot;:&quot;entityRelationEdgeStyle&quot;,&quot;startArrow&quot;:&quot;none&quot;,&quot;endArrow&quot;:&quot;none&quot;,&quot;segment&quot;:10,&quot;curved&quot;:1,&quot;sourcePerimeterSpacing&quot;:0,&quot;targetPerimeterSpacing&quot;:0};treeFolding=1;treeMoving=1;" vertex="1" parent="Gr0Zq-AI6Quabplr0KPa-179">
          <mxGeometry x="839" y="311" width="100" height="40" as="geometry" />
        </mxCell>
        <mxCell id="kl9yPUdAR2kA5Z42WzvT-29" value="对象关系类&lt;div&gt;结构型&lt;/div&gt;" style="ellipse;whiteSpace=wrap;html=1;align=center;newEdgeStyle={&quot;edgeStyle&quot;:&quot;entityRelationEdgeStyle&quot;,&quot;startArrow&quot;:&quot;none&quot;,&quot;endArrow&quot;:&quot;none&quot;,&quot;segment&quot;:10,&quot;curved&quot;:1,&quot;sourcePerimeterSpacing&quot;:0,&quot;targetPerimeterSpacing&quot;:0};treeFolding=1;treeMoving=1;" vertex="1" parent="Gr0Zq-AI6Quabplr0KPa-179">
          <mxGeometry x="784" y="449" width="100" height="40" as="geometry" />
        </mxCell>
        <mxCell id="kl9yPUdAR2kA5Z42WzvT-60" value="" style="edgeStyle=entityRelationEdgeStyle;rounded=0;orthogonalLoop=1;jettySize=auto;html=1;startArrow=none;endArrow=none;segment=10;curved=1;sourcePerimeterSpacing=0;targetPerimeterSpacing=0;" edge="1" parent="Gr0Zq-AI6Quabplr0KPa-179" source="kl9yPUdAR2kA5Z42WzvT-31" target="kl9yPUdAR2kA5Z42WzvT-59">
          <mxGeometry relative="1" as="geometry" />
        </mxCell>
        <mxCell id="kl9yPUdAR2kA5Z42WzvT-62" value="" style="edgeStyle=entityRelationEdgeStyle;rounded=0;orthogonalLoop=1;jettySize=auto;html=1;startArrow=none;endArrow=none;segment=10;curved=1;sourcePerimeterSpacing=0;targetPerimeterSpacing=0;" edge="1" parent="Gr0Zq-AI6Quabplr0KPa-179" source="kl9yPUdAR2kA5Z42WzvT-31" target="kl9yPUdAR2kA5Z42WzvT-61">
          <mxGeometry relative="1" as="geometry" />
        </mxCell>
        <mxCell id="kl9yPUdAR2kA5Z42WzvT-31" value="单例模式" style="ellipse;whiteSpace=wrap;html=1;align=center;newEdgeStyle={&quot;edgeStyle&quot;:&quot;entityRelationEdgeStyle&quot;,&quot;startArrow&quot;:&quot;none&quot;,&quot;endArrow&quot;:&quot;none&quot;,&quot;segment&quot;:10,&quot;curved&quot;:1,&quot;sourcePerimeterSpacing&quot;:0,&quot;targetPerimeterSpacing&quot;:0};treeFolding=1;treeMoving=1;" vertex="1" parent="Gr0Zq-AI6Quabplr0KPa-179">
          <mxGeometry x="940" y="34" width="100" height="40" as="geometry" />
        </mxCell>
        <mxCell id="kl9yPUdAR2kA5Z42WzvT-32" value="" style="edgeStyle=entityRelationEdgeStyle;rounded=0;orthogonalLoop=1;jettySize=auto;html=1;startArrow=none;endArrow=none;segment=10;curved=1;sourcePerimeterSpacing=0;targetPerimeterSpacing=0;" edge="1" parent="Gr0Zq-AI6Quabplr0KPa-179" source="kl9yPUdAR2kA5Z42WzvT-25" target="kl9yPUdAR2kA5Z42WzvT-31">
          <mxGeometry relative="1" as="geometry" />
        </mxCell>
        <mxCell id="kl9yPUdAR2kA5Z42WzvT-42" value="" style="edgeStyle=entityRelationEdgeStyle;rounded=0;orthogonalLoop=1;jettySize=auto;html=1;startArrow=none;endArrow=none;segment=10;curved=1;sourcePerimeterSpacing=0;targetPerimeterSpacing=0;" edge="1" parent="Gr0Zq-AI6Quabplr0KPa-179" source="kl9yPUdAR2kA5Z42WzvT-39" target="kl9yPUdAR2kA5Z42WzvT-41">
          <mxGeometry relative="1" as="geometry" />
        </mxCell>
        <mxCell id="kl9yPUdAR2kA5Z42WzvT-44" value="" style="edgeStyle=entityRelationEdgeStyle;rounded=0;orthogonalLoop=1;jettySize=auto;html=1;startArrow=none;endArrow=none;segment=10;curved=1;sourcePerimeterSpacing=0;targetPerimeterSpacing=0;" edge="1" parent="Gr0Zq-AI6Quabplr0KPa-179" source="kl9yPUdAR2kA5Z42WzvT-39" target="kl9yPUdAR2kA5Z42WzvT-43">
          <mxGeometry relative="1" as="geometry" />
        </mxCell>
        <mxCell id="kl9yPUdAR2kA5Z42WzvT-46" value="" style="edgeStyle=entityRelationEdgeStyle;rounded=0;orthogonalLoop=1;jettySize=auto;html=1;startArrow=none;endArrow=none;segment=10;curved=1;sourcePerimeterSpacing=0;targetPerimeterSpacing=0;" edge="1" parent="Gr0Zq-AI6Quabplr0KPa-179" source="kl9yPUdAR2kA5Z42WzvT-39" target="kl9yPUdAR2kA5Z42WzvT-45">
          <mxGeometry relative="1" as="geometry" />
        </mxCell>
        <mxCell id="kl9yPUdAR2kA5Z42WzvT-48" value="" style="edgeStyle=entityRelationEdgeStyle;rounded=0;orthogonalLoop=1;jettySize=auto;html=1;startArrow=none;endArrow=none;segment=10;curved=1;sourcePerimeterSpacing=0;targetPerimeterSpacing=0;" edge="1" parent="Gr0Zq-AI6Quabplr0KPa-179" source="kl9yPUdAR2kA5Z42WzvT-39" target="kl9yPUdAR2kA5Z42WzvT-47">
          <mxGeometry relative="1" as="geometry" />
        </mxCell>
        <mxCell id="kl9yPUdAR2kA5Z42WzvT-50" value="" style="edgeStyle=entityRelationEdgeStyle;rounded=0;orthogonalLoop=1;jettySize=auto;html=1;startArrow=none;endArrow=none;segment=10;curved=1;sourcePerimeterSpacing=0;targetPerimeterSpacing=0;" edge="1" parent="Gr0Zq-AI6Quabplr0KPa-179" source="kl9yPUdAR2kA5Z42WzvT-39" target="kl9yPUdAR2kA5Z42WzvT-49">
          <mxGeometry relative="1" as="geometry" />
        </mxCell>
        <mxCell id="kl9yPUdAR2kA5Z42WzvT-52" value="" style="edgeStyle=entityRelationEdgeStyle;rounded=0;orthogonalLoop=1;jettySize=auto;html=1;startArrow=none;endArrow=none;segment=10;curved=1;sourcePerimeterSpacing=0;targetPerimeterSpacing=0;" edge="1" parent="Gr0Zq-AI6Quabplr0KPa-179" source="kl9yPUdAR2kA5Z42WzvT-39" target="kl9yPUdAR2kA5Z42WzvT-51">
          <mxGeometry relative="1" as="geometry" />
        </mxCell>
        <mxCell id="kl9yPUdAR2kA5Z42WzvT-39" value="设计原则" style="ellipse;whiteSpace=wrap;html=1;align=center;newEdgeStyle={&quot;edgeStyle&quot;:&quot;entityRelationEdgeStyle&quot;,&quot;startArrow&quot;:&quot;none&quot;,&quot;endArrow&quot;:&quot;none&quot;,&quot;segment&quot;:10,&quot;curved&quot;:1,&quot;sourcePerimeterSpacing&quot;:0,&quot;targetPerimeterSpacing&quot;:0};treeFolding=1;treeMoving=1;" vertex="1" parent="Gr0Zq-AI6Quabplr0KPa-179">
          <mxGeometry x="634" y="562" width="100" height="40" as="geometry" />
        </mxCell>
        <mxCell id="kl9yPUdAR2kA5Z42WzvT-41" value="开闭原则&lt;div&gt;Closed Open Principle&lt;/div&gt;" style="ellipse;whiteSpace=wrap;html=1;align=center;newEdgeStyle={&quot;edgeStyle&quot;:&quot;entityRelationEdgeStyle&quot;,&quot;startArrow&quot;:&quot;none&quot;,&quot;endArrow&quot;:&quot;none&quot;,&quot;segment&quot;:10,&quot;curved&quot;:1,&quot;sourcePerimeterSpacing&quot;:0,&quot;targetPerimeterSpacing&quot;:0};treeFolding=1;treeMoving=1;" vertex="1" parent="Gr0Zq-AI6Quabplr0KPa-179">
          <mxGeometry x="798" y="552" width="118" height="50" as="geometry" />
        </mxCell>
        <mxCell id="kl9yPUdAR2kA5Z42WzvT-43" value="单一职责原则&lt;div&gt;Simple Responsibility Principle&lt;/div&gt;" style="ellipse;whiteSpace=wrap;html=1;align=center;newEdgeStyle={&quot;edgeStyle&quot;:&quot;entityRelationEdgeStyle&quot;,&quot;startArrow&quot;:&quot;none&quot;,&quot;endArrow&quot;:&quot;none&quot;,&quot;segment&quot;:10,&quot;curved&quot;:1,&quot;sourcePerimeterSpacing&quot;:0,&quot;targetPerimeterSpacing&quot;:0};treeFolding=1;treeMoving=1;" vertex="1" parent="Gr0Zq-AI6Quabplr0KPa-179">
          <mxGeometry x="804" y="617" width="121" height="57" as="geometry" />
        </mxCell>
        <mxCell id="kl9yPUdAR2kA5Z42WzvT-45" value="依赖倒置原则&lt;div&gt;Dependence Inversion Principle&lt;/div&gt;" style="ellipse;whiteSpace=wrap;html=1;align=center;newEdgeStyle={&quot;edgeStyle&quot;:&quot;entityRelationEdgeStyle&quot;,&quot;startArrow&quot;:&quot;none&quot;,&quot;endArrow&quot;:&quot;none&quot;,&quot;segment&quot;:10,&quot;curved&quot;:1,&quot;sourcePerimeterSpacing&quot;:0,&quot;targetPerimeterSpacing&quot;:0};treeFolding=1;treeMoving=1;" vertex="1" parent="Gr0Zq-AI6Quabplr0KPa-179">
          <mxGeometry x="815" y="689" width="143" height="55" as="geometry" />
        </mxCell>
        <mxCell id="kl9yPUdAR2kA5Z42WzvT-47" value="迪米特原则&lt;div&gt;Law of Demeter&lt;/div&gt;" style="ellipse;whiteSpace=wrap;html=1;align=center;newEdgeStyle={&quot;edgeStyle&quot;:&quot;entityRelationEdgeStyle&quot;,&quot;startArrow&quot;:&quot;none&quot;,&quot;endArrow&quot;:&quot;none&quot;,&quot;segment&quot;:10,&quot;curved&quot;:1,&quot;sourcePerimeterSpacing&quot;:0,&quot;targetPerimeterSpacing&quot;:0};treeFolding=1;treeMoving=1;" vertex="1" parent="Gr0Zq-AI6Quabplr0KPa-179">
          <mxGeometry x="825" y="771" width="114" height="53" as="geometry" />
        </mxCell>
        <mxCell id="kl9yPUdAR2kA5Z42WzvT-49" value="接口隔离原则&lt;div&gt;Interface Segregation Principle&lt;/div&gt;&lt;div&gt;&lt;br&gt;&lt;/div&gt;" style="ellipse;whiteSpace=wrap;html=1;align=center;newEdgeStyle={&quot;edgeStyle&quot;:&quot;entityRelationEdgeStyle&quot;,&quot;startArrow&quot;:&quot;none&quot;,&quot;endArrow&quot;:&quot;none&quot;,&quot;segment&quot;:10,&quot;curved&quot;:1,&quot;sourcePerimeterSpacing&quot;:0,&quot;targetPerimeterSpacing&quot;:0};treeFolding=1;treeMoving=1;" vertex="1" parent="Gr0Zq-AI6Quabplr0KPa-179">
          <mxGeometry x="818" y="851" width="143" height="67" as="geometry" />
        </mxCell>
        <mxCell id="kl9yPUdAR2kA5Z42WzvT-51" value="里氏替换原则&lt;div&gt;Liskov Substituation Principle&lt;/div&gt;" style="ellipse;whiteSpace=wrap;html=1;align=center;newEdgeStyle={&quot;edgeStyle&quot;:&quot;entityRelationEdgeStyle&quot;,&quot;startArrow&quot;:&quot;none&quot;,&quot;endArrow&quot;:&quot;none&quot;,&quot;segment&quot;:10,&quot;curved&quot;:1,&quot;sourcePerimeterSpacing&quot;:0,&quot;targetPerimeterSpacing&quot;:0};treeFolding=1;treeMoving=1;fillColor=#60a917;strokeColor=#2D7600;fontColor=#ffffff;" vertex="1" parent="Gr0Zq-AI6Quabplr0KPa-179">
          <mxGeometry x="832" y="930" width="142" height="46" as="geometry" />
        </mxCell>
        <mxCell id="kl9yPUdAR2kA5Z42WzvT-53" value="代理模式" style="ellipse;whiteSpace=wrap;html=1;align=center;newEdgeStyle={&quot;edgeStyle&quot;:&quot;entityRelationEdgeStyle&quot;,&quot;startArrow&quot;:&quot;none&quot;,&quot;endArrow&quot;:&quot;none&quot;,&quot;segment&quot;:10,&quot;curved&quot;:1,&quot;sourcePerimeterSpacing&quot;:0,&quot;targetPerimeterSpacing&quot;:0};treeFolding=1;treeMoving=1;" vertex="1" parent="Gr0Zq-AI6Quabplr0KPa-179">
          <mxGeometry x="933" y="114" width="100" height="40" as="geometry" />
        </mxCell>
        <mxCell id="kl9yPUdAR2kA5Z42WzvT-55" value="建造者模式" style="ellipse;whiteSpace=wrap;html=1;align=center;newEdgeStyle={&quot;edgeStyle&quot;:&quot;entityRelationEdgeStyle&quot;,&quot;startArrow&quot;:&quot;none&quot;,&quot;endArrow&quot;:&quot;none&quot;,&quot;segment&quot;:10,&quot;curved&quot;:1,&quot;sourcePerimeterSpacing&quot;:0,&quot;targetPerimeterSpacing&quot;:0};treeFolding=1;treeMoving=1;" vertex="1" parent="Gr0Zq-AI6Quabplr0KPa-179">
          <mxGeometry x="1013" y="172" width="100" height="40" as="geometry" />
        </mxCell>
        <mxCell id="kl9yPUdAR2kA5Z42WzvT-57" value="工厂模式" style="ellipse;whiteSpace=wrap;html=1;align=center;newEdgeStyle={&quot;edgeStyle&quot;:&quot;entityRelationEdgeStyle&quot;,&quot;startArrow&quot;:&quot;none&quot;,&quot;endArrow&quot;:&quot;none&quot;,&quot;segment&quot;:10,&quot;curved&quot;:1,&quot;sourcePerimeterSpacing&quot;:0,&quot;targetPerimeterSpacing&quot;:0};treeFolding=1;treeMoving=1;" vertex="1" parent="Gr0Zq-AI6Quabplr0KPa-179">
          <mxGeometry x="946" y="239" width="100" height="40" as="geometry" />
        </mxCell>
        <mxCell id="kl9yPUdAR2kA5Z42WzvT-59" value="恶汉模式" style="ellipse;whiteSpace=wrap;html=1;align=center;newEdgeStyle={&quot;edgeStyle&quot;:&quot;entityRelationEdgeStyle&quot;,&quot;startArrow&quot;:&quot;none&quot;,&quot;endArrow&quot;:&quot;none&quot;,&quot;segment&quot;:10,&quot;curved&quot;:1,&quot;sourcePerimeterSpacing&quot;:0,&quot;targetPerimeterSpacing&quot;:0};treeFolding=1;treeMoving=1;" vertex="1" parent="Gr0Zq-AI6Quabplr0KPa-179">
          <mxGeometry x="1100" y="23" width="100" height="40" as="geometry" />
        </mxCell>
        <mxCell id="kl9yPUdAR2kA5Z42WzvT-61" value="懒汉模式&lt;div&gt;使用时创建对象&lt;/div&gt;" style="ellipse;whiteSpace=wrap;html=1;align=center;newEdgeStyle={&quot;edgeStyle&quot;:&quot;entityRelationEdgeStyle&quot;,&quot;startArrow&quot;:&quot;none&quot;,&quot;endArrow&quot;:&quot;none&quot;,&quot;segment&quot;:10,&quot;curved&quot;:1,&quot;sourcePerimeterSpacing&quot;:0,&quot;targetPerimeterSpacing&quot;:0};treeFolding=1;treeMoving=1;" vertex="1" parent="Gr0Zq-AI6Quabplr0KPa-179">
          <mxGeometry x="1110" y="81" width="100" height="40" as="geometry" />
        </mxCell>
        <mxCell id="kl9yPUdAR2kA5Z42WzvT-73" value="使用synchronized锁定创建对象整个方法&lt;div&gt;缺点：锁整个方法，造成性能低下问题&lt;/div&gt;" style="whiteSpace=wrap;html=1;shape=partialRectangle;top=0;left=0;bottom=1;right=0;points=[[0,1],[1,1]];fillColor=none;align=center;verticalAlign=bottom;routingCenterY=0.5;snapToPoint=1;recursiveResize=0;autosize=1;treeFolding=1;treeMoving=1;newEdgeStyle={&quot;edgeStyle&quot;:&quot;entityRelationEdgeStyle&quot;,&quot;startArrow&quot;:&quot;none&quot;,&quot;endArrow&quot;:&quot;none&quot;,&quot;segment&quot;:10,&quot;curved&quot;:1,&quot;sourcePerimeterSpacing&quot;:0,&quot;targetPerimeterSpacing&quot;:0};" vertex="1" parent="Gr0Zq-AI6Quabplr0KPa-179">
          <mxGeometry x="1337" y="28" width="250" height="41" as="geometry" />
        </mxCell>
        <mxCell id="kl9yPUdAR2kA5Z42WzvT-74" value="" style="edgeStyle=entityRelationEdgeStyle;startArrow=none;endArrow=none;segment=10;curved=1;sourcePerimeterSpacing=0;targetPerimeterSpacing=0;rounded=0;exitX=0.96;exitY=0.275;exitDx=0;exitDy=0;exitPerimeter=0;" edge="1" target="kl9yPUdAR2kA5Z42WzvT-73" parent="Gr0Zq-AI6Quabplr0KPa-179" source="kl9yPUdAR2kA5Z42WzvT-61">
          <mxGeometry relative="1" as="geometry">
            <mxPoint x="1218" y="103" as="sourcePoint" />
          </mxGeometry>
        </mxCell>
        <mxCell id="kl9yPUdAR2kA5Z42WzvT-77" value="使用synchronized 锁定创建对象语句块&lt;div&gt;DCL 双重锁定机制&lt;/div&gt;&lt;div&gt;对象需要volitale修饰，保证拿到的对象是完整的（避免JVM指令重排导致对象不完整）&lt;/div&gt;" style="whiteSpace=wrap;html=1;shape=partialRectangle;top=0;left=0;bottom=1;right=0;points=[[0,1],[1,1]];fillColor=none;align=center;verticalAlign=bottom;routingCenterY=0.5;snapToPoint=1;recursiveResize=0;autosize=1;treeFolding=1;treeMoving=1;newEdgeStyle={&quot;edgeStyle&quot;:&quot;entityRelationEdgeStyle&quot;,&quot;startArrow&quot;:&quot;none&quot;,&quot;endArrow&quot;:&quot;none&quot;,&quot;segment&quot;:10,&quot;curved&quot;:1,&quot;sourcePerimeterSpacing&quot;:0,&quot;targetPerimeterSpacing&quot;:0};" vertex="1" parent="Gr0Zq-AI6Quabplr0KPa-179">
          <mxGeometry x="1247" y="125" width="525" height="55" as="geometry" />
        </mxCell>
        <mxCell id="kl9yPUdAR2kA5Z42WzvT-78" value="" style="edgeStyle=entityRelationEdgeStyle;startArrow=none;endArrow=none;segment=10;curved=1;sourcePerimeterSpacing=0;targetPerimeterSpacing=0;rounded=0;" edge="1" target="kl9yPUdAR2kA5Z42WzvT-77" parent="Gr0Zq-AI6Quabplr0KPa-179" source="kl9yPUdAR2kA5Z42WzvT-61">
          <mxGeometry relative="1" as="geometry">
            <mxPoint x="1297" y="149" as="sourcePoint" />
          </mxGeometry>
        </mxCell>
        <mxCell id="kl9yPUdAR2kA5Z42WzvT-69" value="在类加载时创建对象，依赖JVM类加载的线程安全保证只产生一个实例&lt;div&gt;&lt;br&gt;&lt;/div&gt;&lt;div&gt;缺点：在使用前，对象就创建，会造成内存资源的浪费&lt;/div&gt;" style="whiteSpace=wrap;html=1;shape=partialRectangle;top=0;left=0;bottom=1;right=0;points=[[0,1],[1,1]];fillColor=none;align=left;verticalAlign=bottom;routingCenterY=0.5;snapToPoint=1;recursiveResize=0;autosize=1;treeFolding=1;treeMoving=1;newEdgeStyle={&quot;edgeStyle&quot;:&quot;entityRelationEdgeStyle&quot;,&quot;startArrow&quot;:&quot;none&quot;,&quot;endArrow&quot;:&quot;none&quot;,&quot;segment&quot;:10,&quot;curved&quot;:1,&quot;sourcePerimeterSpacing&quot;:0,&quot;targetPerimeterSpacing&quot;:0};" vertex="1" parent="1">
          <mxGeometry x="1338" y="100" width="407" height="55" as="geometry" />
        </mxCell>
        <mxCell id="kl9yPUdAR2kA5Z42WzvT-70" value="" style="edgeStyle=entityRelationEdgeStyle;startArrow=none;endArrow=none;segment=10;curved=1;sourcePerimeterSpacing=0;targetPerimeterSpacing=0;rounded=0;" edge="1" target="kl9yPUdAR2kA5Z42WzvT-69" parent="1" source="kl9yPUdAR2kA5Z42WzvT-59">
          <mxGeometry relative="1" as="geometry">
            <mxPoint x="1040" y="281" as="sourcePoint" />
            <Array as="points">
              <mxPoint x="1054" y="267" />
            </Array>
          </mxGeometry>
        </mxCell>
      </root>
    </mxGraphModel>
  </diagram>
</mxfile>
